<?xml version="1.0" encoding="utf-8"?>
<!-- Generator: Adobe Illustrator 27.1.1, SVG Export Plug-In . SVG Version: 6.00 Build 0)  -->
<svg version="1.1" id="Layer_1" xmlns="http://www.w3.org/2000/svg" xmlns:xlink="http://www.w3.org/1999/xlink" x="0px" y="0px"
	 viewBox="0 0 720 720" style="enable-background:new 0 0 720 720;" xml:space="preserve">
<style type="text/css">
	.st0{fill:#F68931;}
	.st1{fill:none;stroke:#F68931;stroke-width:6;stroke-miterlimit:10;}
	.st2{fill:#FEEC4A;}
</style>
<g>
	<g>
		<g>
			<path class="st0" d="M163.02,510.08c64.32,34.2,128.63,68.39,192.95,102.59c8.52,4.53,16.11-8.41,7.57-12.95
				c-64.32-34.2-128.63-68.39-192.95-102.59C162.07,492.6,154.48,505.55,163.02,510.08L163.02,510.08z"/>
		</g>
	</g>
	<g>
		<g>
			<path class="st0" d="M551.04,383.85c-0.46,37.98-0.92,75.97-1.38,113.95c-0.12,9.66,14.88,9.66,15,0
				c0.46-37.98,0.92-75.97,1.38-113.95C566.16,374.2,551.16,374.19,551.04,383.85L551.04,383.85z"/>
		</g>
	</g>
	<g>
		<g>
			<path class="st0" d="M552.68,495.13C487.11,530,421.54,564.86,355.97,599.72c-8.53,4.53-0.96,17.49,7.57,12.95
				c65.57-34.86,131.14-69.73,196.71-104.59C568.78,503.55,561.21,490.6,552.68,495.13L552.68,495.13z"/>
		</g>
	</g>
	<g>
		<g>
			<path class="st0" d="M157.42,276.84c-0.46,37.98-0.92,75.97-1.38,113.95c-0.12,9.66,14.88,9.66,15,0
				c0.46-37.98,0.92-75.97,1.38-113.95C172.54,267.19,157.54,267.18,157.42,276.84L157.42,276.84z"/>
		</g>
	</g>
	<g>
		<g>
			<path class="st0" d="M270.64,413.24c-0.46,37.98-0.92,75.97-1.38,113.95c-0.12,9.66,14.88,9.66,15,0
				c0.46-37.98,0.92-75.97,1.38-113.95C285.76,403.58,270.76,403.57,270.64,413.24L270.64,413.24z"/>
		</g>
	</g>
	<g>
		<g>
			<path class="st0" d="M277.61,536.4c15.25,8.52,30.5,17.03,45.75,25.55c8.44,4.71,16.01-8.24,7.57-12.95
				c-15.25-8.52-30.5-17.03-45.75-25.55C276.75,518.73,269.17,531.68,277.61,536.4L277.61,536.4z"/>
		</g>
	</g>
	<circle class="st1" cx="327.14" cy="484" r="6.32"/>
	<g>
		<g>
			<path class="st0" d="M319.83,522.15c-0.13,10.35-0.25,20.69-0.38,31.04c-0.12,9.66,14.88,9.66,15,0
				c0.13-10.35,0.25-20.69,0.38-31.04C334.95,512.5,319.95,512.49,319.83,522.15L319.83,522.15z"/>
		</g>
	</g>
	<g>
		<g>
			<path class="st0" d="M161.14,277.73c64.32,34.2,128.63,68.39,192.95,102.59c8.52,4.53,16.11-8.41,7.57-12.95
				c-64.32-34.2-128.63-68.39-192.95-102.59C160.19,260.25,152.6,273.19,161.14,277.73L161.14,277.73z"/>
		</g>
	</g>
	<g>
		<g>
			<path class="st0" d="M550.8,262.77c-65.57,34.86-131.14,69.73-196.71,104.59c-8.53,4.53-0.96,17.49,7.57,12.95
				c65.57-34.86,131.14-69.73,196.71-104.59C566.9,271.19,559.33,258.24,550.8,262.77L550.8,262.77z"/>
		</g>
	</g>
	<g>
		<g>
			<path class="st0" d="M357.85,173.13c64.32,34.2,128.63,68.39,192.95,102.59c8.52,4.53,16.11-8.41,7.57-12.95
				c-64.32-34.2-128.63-68.39-192.95-102.59C356.9,155.65,349.31,168.6,357.85,173.13L357.85,173.13z"/>
		</g>
	</g>
</g>
<g>
	<g>
		<path class="st2" d="M474.64,496.11c3.81-2.21,7.6-4.47,11.39-6.72c1.9-1.13,3.79-2.25,5.69-3.36c1.19-0.7,2.6-1.34,3.58-2.33
			c1.67-1.67,1.83-3.75,1.83-5.93c0-7.47,0-14.95,0-22.42c0-4.8-5.29-7.71-9.4-5.4c-8.17,4.6-16.34,9.2-24.51,13.79
			c-1.91,1.07-3.1,3.22-3.1,5.4c0,14.51,0,29.02,0,43.53c0,4.84,5.28,7.65,9.4,5.4c9.15-5.01,18.43-9.78,27.57-14.81
			c2.87-1.58,4.04-5.77,2.24-8.55c-1.87-2.91-5.48-3.93-8.55-2.24c-9.14,5.03-18.42,9.8-27.57,14.81c3.13,1.8,6.27,3.6,9.4,5.4
			c0-14.51,0-29.02,0-43.53c-1.03,1.8-2.06,3.6-3.1,5.4c8.17-4.6,16.34-9.2,24.51-13.79c-3.13-1.8-6.27-3.6-9.4-5.4
			c0,7.98,0,15.96,0,23.94c1.03-1.8,2.06-3.6,3.1-5.4c-6.49,3.76-12.91,7.66-19.4,11.43c-2.83,1.64-4.07,5.72-2.24,8.55
			C467.93,496.72,471.61,497.86,474.64,496.11L474.64,496.11z"/>
	</g>
</g>
<g>
	<g>
		<path class="st2" d="M447.42,472.29c-3.19,1.85-6.44,3.57-9.72,5.26c-1.53,0.79-3.06,1.6-4.58,2.43c-0.85,0.47-1.7,0.95-2.55,1.43
			c-0.86,0.49-1.79,0.98-2.5,1.69c-1.33,1.33-1.79,3.09-1.83,4.91c-0.22,9.22,0,18.47,0,27.69c0,5.42,0,10.84,0,16.27
			c0,3.27,2.87,6.4,6.25,6.25c3.39-0.15,6.25-2.75,6.25-6.25c0-14.82,0-29.63,0-44.45c-1.03,1.8-2.06,3.6-3.1,5.4
			c5.94-3.44,12.14-6.4,18.08-9.83c2.83-1.64,4.07-5.72,2.24-8.55C454.13,471.68,450.45,470.54,447.42,472.29L447.42,472.29z"/>
	</g>
</g>
<g>
	<g>
		<path class="st2" d="M370.77,436.98c0,31.57,0,63.15,0,94.72c0,8.97,0,17.95,0,26.92c0,4.85,5.28,7.64,9.4,5.4
			c11.35-6.17,22.7-12.35,34.04-18.52c1.92-1.04,3.1-3.25,3.1-5.4c0-13.6-0.26-27.19-0.27-40.79c0-4.93-5.26-7.53-9.4-5.4
			c-9.56,4.93-19.11,9.85-28.67,14.78c-2.91,1.5-4,5.82-2.24,8.55c1.91,2.97,5.44,3.85,8.55,2.24c9.56-4.93,19.11-9.85,28.67-14.78
			c-3.13-1.8-6.27-3.6-9.4-5.4c0,13.6,0.26,27.19,0.27,40.79c1.03-1.8,2.06-3.6,3.1-5.4c-11.35,6.17-22.7,12.35-34.04,18.52
			c3.13,1.8,6.27,3.6,9.4,5.4c0-31.57,0-63.15,0-94.72c0-8.97,0-17.95,0-26.92c0-3.27-2.87-6.4-6.25-6.25
			C373.63,430.88,370.77,433.48,370.77,436.98L370.77,436.98z"/>
	</g>
</g>
</svg>
