<?xml version="1.0" encoding="utf-8"?>
<!-- Generator: Adobe Illustrator 27.4.0, SVG Export Plug-In . SVG Version: 6.00 Build 0)  -->
<svg version="1.1" id="Layer_1" xmlns="http://www.w3.org/2000/svg" xmlns:xlink="http://www.w3.org/1999/xlink" x="0px" y="0px"
	 viewBox="0 0 720 720" style="enable-background:new 0 0 720 720;" xml:space="preserve">
<style type="text/css">
	.st0{fill:#FBB040;stroke:#FBB040;}
	.st1{fill:#ED1C24;stroke:#FBB040;stroke-width:10;stroke-miterlimit:10;}
	.st2{fill:none;stroke:#FBB040;stroke-width:5;stroke-miterlimit:10;}
	.st3{fill:none;stroke:#000000;stroke-width:6;}
</style>
<g>
	<path d="M367.51,384.38c0,16.6-12.1,28.8-28.7,28.8c-16.6,0-28.4-12.1-28.4-29v-50.4h5.8v36.4c4.4-8.7,13-14.1,23.5-14.1
		C355.91,356.08,367.51,368.08,367.51,384.38z M361.71,384.68c0-13.6-9.6-23.3-22.8-23.3c-13,0-22.9,9.8-22.9,23.4
		c0,13.5,9.7,23.1,22.9,23.1C352.11,407.88,361.71,398.28,361.71,384.68z"/>
	<path d="M417.81,357.58v6.1c-2.2-1.2-5.4-1.9-8.7-1.9c-10.3,0-18.1,7.4-18.1,20v30h-6v-54.4h5.7v11.6c2.4-6.7,9.3-12.9,19.2-12.9
		C412.71,356.08,415.91,356.58,417.81,357.58z"/>
	<path d="M475.61,385.88h-46.2c0.8,13.8,10,21.9,25.2,21.9c7.5,0,14.1-1.9,18.6-4.6l0.1,5.5c-5.1,3-12.1,4.5-19.1,4.5
		c-18.9,0-30.5-11.3-30.5-29.1c0-16.2,11.8-28,27.1-28c15.4,0,25.1,11.2,25.1,26.4C475.91,383.78,475.81,384.88,475.61,385.88z
		 M429.61,381.08h40.7c-0.4-11.4-7.3-19.9-19.7-19.9C439.51,361.18,430.81,369.08,429.61,381.08z"/>
</g>
<g>
	<path class="st0" d="M281.52,401.32v10.15h-66.04v-133.5h10.86v123.35H281.52z"/>
</g>
<path class="st1" d="M276.72,406.12c0-13.17,0-26.33,0-39.5"/>
<circle class="st2" cx="276.72" cy="347.79" r="6.02"/>
<line class="st3" x1="182.92" y1="437.38" x2="498.49" y2="437.38"/>
<line class="st3" x1="185.64" y1="243.31" x2="185.64" y2="440.44"/>
</svg>
