<?xml version="1.0" encoding="utf-8"?>
<!-- Generator: Adobe Illustrator 27.7.0, SVG Export Plug-In . SVG Version: 6.00 Build 0)  -->
<svg version="1.1" id="Layer_1" xmlns="http://www.w3.org/2000/svg" xmlns:xlink="http://www.w3.org/1999/xlink" x="0px" y="0px"
	 viewBox="0 0 360 144" style="enable-background:new 0 0 360 144;" xml:space="preserve">
<style type="text/css">
	.st0{display:none;fill:#FCF9CE;stroke:#000000;stroke-miterlimit:10;}
	.st1{fill:#FFFFFF;}
	.st2{fill:#FBB040;}
	.st3{fill:none;stroke:#FBB040;stroke-width:3;stroke-miterlimit:10;}
	.st4{fill:#603913;}
</style>
<rect x="-201.08" y="-331.59" class="st0" width="735.54" height="734.71"/>
<g>
	<path class="st1" d="M126.47,96.18c0,10.56-7.7,18.32-18.26,18.32c-10.56,0-18.07-7.7-18.07-18.45V63.99h3.69v23.16
		c2.8-5.53,8.27-8.97,14.95-8.97C119.09,78.18,126.47,85.82,126.47,96.18z M122.78,96.38c0-8.65-6.11-14.82-14.5-14.82
		c-8.27,0-14.57,6.23-14.57,14.89c0,8.59,6.17,14.69,14.57,14.69C116.67,111.13,122.78,105.03,122.78,96.38z"/>
	<path class="st1" d="M158.46,79.14v3.88c-1.4-0.76-3.44-1.21-5.53-1.21c-6.55,0-11.51,4.71-11.51,12.72v19.08h-3.82V79.01h3.63
		v7.38c1.53-4.26,5.92-8.21,12.21-8.21C155.22,78.18,157.25,78.5,158.46,79.14z"/>
	<path class="st1" d="M195.23,97.14h-29.39c0.51,8.78,6.36,13.93,16.03,13.93c4.77,0,8.97-1.21,11.83-2.93l0.06,3.5
		c-3.24,1.91-7.7,2.86-12.15,2.86c-12.02,0-19.4-7.19-19.4-18.51c0-10.31,7.51-17.81,17.24-17.81c9.8,0,15.97,7.12,15.97,16.79
		C195.42,95.8,195.36,96.5,195.23,97.14z M165.97,94.09h25.89c-0.25-7.25-4.64-12.66-12.53-12.66
		C172.26,81.43,166.73,86.45,165.97,94.09z"/>
</g>
<g>
	<g>
		<path class="st2" d="M71.76,106.96v6.45H29.76V28.49h6.91v78.46H71.76z"/>
	</g>
</g>
<circle class="st3" cx="67.86" cy="73.98" r="3.83"/>
<g>
	<rect x="63.81" y="88.4" class="st2" width="7.91" height="24.64"/>
</g>
<g>
	<g>
		<path class="st4" d="M232.42,105c16.5,8.78,33.01,17.55,49.51,26.33"/>
		<g>
			<path class="st2" d="M230.53,108.24c16.5,8.78,33.01,17.55,49.51,26.33c4.26,2.26,8.05-4.21,3.79-6.48
				c-16.5-8.78-33.01-17.55-49.51-26.33C230.06,99.49,226.26,105.97,230.53,108.24L230.53,108.24z"/>
		</g>
	</g>
	<g>
		<path class="st4" d="M332.95,74.27c-0.12,9.75-0.24,19.49-0.35,29.24"/>
		<g>
			<path class="st2" d="M329.2,74.27c-0.12,9.75-0.24,19.49-0.35,29.24c-0.06,4.83,7.44,4.83,7.5,0c0.12-9.75,0.24-19.49,0.35-29.24
				C336.76,69.44,329.26,69.44,329.2,74.27L329.2,74.27z"/>
		</g>
	</g>
	<g>
		<path class="st4" d="M332.41,104.48c-16.83,8.95-33.65,17.89-50.48,26.84"/>
		<g>
			<path class="st2" d="M330.52,101.25c-16.83,8.95-33.65,17.89-50.48,26.84c-4.26,2.27-0.48,8.74,3.79,6.48
				c16.83-8.95,33.65-17.89,50.48-26.84C338.57,105.46,334.79,98.98,330.52,101.25L330.52,101.25z"/>
		</g>
	</g>
	<g>
		<path class="st4" d="M231.94,46.81c-0.12,9.75-0.24,19.49-0.35,29.24"/>
		<g>
			<path class="st2" d="M228.19,46.81c-0.12,9.75-0.24,19.49-0.35,29.24c-0.06,4.83,7.44,4.83,7.5,0
				c0.12-9.75,0.24-19.49,0.35-29.24C235.75,41.98,228.25,41.98,228.19,46.81L228.19,46.81z"/>
		</g>
	</g>
	<g>
		<path class="st4" d="M231.94,45.37c16.5,8.78,33.01,17.55,49.51,26.33"/>
		<g>
			<path class="st2" d="M230.05,48.61c16.5,8.78,33.01,17.55,49.51,26.33c4.26,2.26,8.05-4.21,3.79-6.48
				c-16.5-8.78-33.01-17.55-49.51-26.33C229.57,39.87,225.78,46.34,230.05,48.61L230.05,48.61z"/>
		</g>
	</g>
	<g>
		<path class="st4" d="M331.93,44.86c-16.83,8.95-33.65,17.89-50.48,26.84"/>
		<g>
			<path class="st2" d="M330.04,41.62c-16.83,8.95-33.65,17.89-50.48,26.84c-4.26,2.27-0.48,8.74,3.79,6.48
				c16.83-8.95,33.65-17.89,50.48-26.84C338.09,45.83,334.3,39.35,330.04,41.62L330.04,41.62z"/>
		</g>
	</g>
	<g>
		<path class="st4" d="M282.42,18.53c16.5,8.78,33.01,17.55,49.51,26.33"/>
		<g>
			<path class="st2" d="M280.53,21.77c16.5,8.78,33.01,17.55,49.51,26.33c4.26,2.26,8.05-4.21,3.79-6.48
				c-16.5-8.78-33.01-17.55-49.51-26.33C280.05,13.03,276.26,19.5,280.53,21.77L280.53,21.77z"/>
		</g>
	</g>
</g>
</svg>
